<svg width="24" height="24" viewBox="0 0 24 24" fill="none" xmlns="http://www.w3.org/2000/svg">
<g id="icon">
<path id="Vector" d="M23.0306 12.5306L15.5306 20.0306C15.4609 20.1002 15.3781 20.1555 15.2871 20.1932C15.1961 20.2309 15.0985 20.2503 14.9999 20.2503C14.9014 20.2503 14.8038 20.2309 14.7128 20.1932C14.6217 20.1555 14.539 20.1002 14.4693 20.0306C14.3996 19.9609 14.3443 19.8781 14.3066 19.7871C14.2689 19.6961 14.2495 19.5985 14.2495 19.4999C14.2495 19.4014 14.2689 19.3038 14.3066 19.2128C14.3443 19.1217 14.3996 19.039 14.4693 18.9693L21.4396 11.9999L14.4693 5.03055C14.3286 4.88982 14.2495 4.69895 14.2495 4.49993C14.2495 4.30091 14.3286 4.11003 14.4693 3.9693C14.61 3.82857 14.8009 3.74951 14.9999 3.74951C15.199 3.74951 15.3898 3.82857 15.5306 3.9693L23.0306 11.4693C23.1003 11.539 23.1556 11.6217 23.1933 11.7127C23.2311 11.8038 23.2505 11.9014 23.2505 11.9999C23.2505 12.0985 23.2311 12.1961 23.1933 12.2871C23.1556 12.3782 23.1003 12.4609 23.0306 12.5306Z" fill="#FFEAC5"/>
</g>
</svg>
