<svg width="106" height="61" viewBox="0 0 106 61" fill="none" xmlns="http://www.w3.org/2000/svg">
<g id="logo">
<path id="Vector" d="M36.6814 0.4375H40.4358L42.3129 0.512659L42.7635 0.813296L43.9648 2.61712L44.7908 3.89482L45.842 5.54832L46.7431 6.97635L48.1697 9.15596L49.1458 10.6591L50.0469 12.0872L51.0981 13.6655L51.9991 15.0935L52.5247 15.9203L52.6749 16.0706L52.9753 15.9954L53.8012 14.7177L54.3268 13.891L55.1528 12.6133L55.6784 11.7865L56.4293 10.6591L57.2552 9.38144L58.1562 7.95341L60.1085 4.94705L60.7843 3.89482L61.9857 2.091L62.8116 0.813296L63.1871 0.512659L64.2383 0.4375H67.2418L68.8186 0.512659L68.8937 0.587818L68.9688 1.26425V5.02221L68.8937 32.7559L68.7435 32.8311H63.4874V11.1853L63.5625 10.0579L63.3372 10.133L62.4362 11.4107L61.7604 12.5381L61.1597 13.3649L60.2587 14.7929L59.2826 16.2961L58.3815 17.7241L57.3303 19.3776L56.1289 21.2566L55.1528 22.7598L54.4019 23.9623L53.3507 25.5407L52.8251 26.4426L52.5247 26.0668L51.9991 25.3152L51.0981 23.812L49.296 21.1063L48.1697 19.3776L47.3438 18.0247L46.2174 16.2961L45.3915 15.0184L44.2652 13.2146L43.5894 12.1623L42.9887 11.2604L42.1628 10.2082L41.9375 9.98271L42.0126 11.0349L42.0877 13.2897V26.8935L42.0126 32.8311L40.7361 32.9062H36.6814L36.5312 32.7559V0.587818L36.6814 0.4375Z" fill="#FFEAC5"/>
<path id="Vector_2" d="M87.749 0H89.3257L90.9776 0.150281L92.8547 0.525983L94.6567 1.12711L96.0082 1.72823L97.3597 2.47963L98.2607 3.08076L99.462 3.98244L100.438 4.80899L100.964 5.33497L101.639 6.16152L102.39 7.13834L103.216 8.49087L104.117 10.2191L104.718 11.7971L105.168 13.6004L105.394 14.8778L105.469 15.6292V17.8834L105.319 19.1608L104.793 21.415L104.342 22.6924L103.517 24.4958L102.691 25.9235L101.865 26.9754L101.264 27.7268L100.438 28.6285L99.9125 29.1545L98.7112 30.0562L97.5849 30.8076L96.2334 31.559L94.8068 32.2353L93.155 32.8364L91.0526 33.2872L89.9264 33.4375H87.4486L85.6466 33.2121L84.22 32.9115L82.8685 32.4607L81.1416 31.7093L79.5648 30.8827L78.6638 30.2816L77.6126 29.4551L76.186 28.0274L75.5103 27.2008L74.9096 26.4494L74.1588 25.3223L73.3328 23.8195L72.582 21.8659L72.1315 20.1376L71.9062 18.0337V14.9529L72.2066 12.9993L73.0325 10.5197L73.6332 9.31742L74.4591 7.81461L75.3601 6.46208L75.9608 5.71067L76.6365 4.95927L77.1621 4.43329L77.988 3.75702L78.9641 3.08076L80.3907 2.17907L82.1177 1.27739L83.319 0.826545L84.9708 0.375702L86.8479 0.0751404L87.749 0ZM87.749 5.33497L86.4725 5.56039L85.1961 5.9361L83.6193 6.61236L82.5682 7.21348L81.517 7.96489L80.4658 8.86657L79.6399 9.8434L79.0392 10.8202L78.4385 11.8722L77.913 12.9993L77.3874 14.8778L77.2372 15.9298V17.2072L77.4625 18.71L77.913 20.3631L78.4385 21.5653L79.0392 22.6924L79.9402 23.9698L80.8412 24.9466L81.8924 25.7732L83.0937 26.5246L84.5203 27.2008L86.1722 27.7268L88.0493 28.1025H88.8001L90.8274 27.802L92.254 27.4263L93.4553 26.9003L94.7318 26.224L95.7829 25.4726L96.6839 24.6461L97.2095 24.1201L98.4109 22.467L99.0115 21.2647L99.387 20.2879L99.7624 18.71L99.9125 17.2072V16.1552L99.7624 14.7275L99.387 13.2247L98.9365 12.0225L98.1856 10.6699L97.2846 9.4677L96.4587 8.56601L95.4826 7.73947L94.1311 6.91292L92.9297 6.3118L91.353 5.71067L90.0766 5.41011L89.4759 5.33497H87.749Z" fill="#FFEAC5"/>
<path id="Vector_3" d="M15.7012 0H17.955L19.8331 0.225336L21.7113 0.676009L23.5143 1.35202L24.7163 1.95291L25.9183 2.62892L27.4208 3.68049L28.3975 4.50673L29.5243 5.63341L30.4259 6.8352L31.2522 8.11211L32.1537 9.68946L32.7547 11.1917L33.2055 12.6939L33.506 14.1962L33.6562 15.6984V17.426L33.506 19.0785L33.2806 20.3554L32.8299 22.083L32.0786 23.9608L31.3274 25.3879L30.7264 26.2141L29.6746 27.5661L29.0736 28.3173L28.6228 28.843L27.7965 29.5191L26.8198 30.2702L25.6178 31.0213L24.1904 31.7724L22.0118 32.5987L20.359 33.0493L18.556 33.3498L17.0535 33.5L15.6261 33.4249L13.5977 33.1244L11.7196 32.5987L9.84145 31.8475L8.41406 31.1715L6.98668 30.2702L6.1603 29.5942L5.25879 28.7679L4.35728 27.8666L3.5309 26.815L2.70452 25.6883L1.95326 24.4114L1.27713 22.9843L0.601004 21.1065L0.225377 19.3038L0.0751256 18.0269L0 16.8251V15.8487L0.300502 13.5953L0.826381 11.7175L1.42739 10.2152L2.02839 9.01345L2.70452 7.81166L3.60603 6.38453L4.28216 5.5583L5.25879 4.58184L6.01005 3.90583L7.3623 2.92937L8.86482 2.02803L10.743 1.12668L12.6211 0.525785L14.349 0.150224L15.7012 0ZM15.8515 5.33296L14.349 5.63341L12.8465 6.15919L11.6445 6.76009L10.8181 7.21076L9.6912 8.03699L8.78969 8.86323L8.03843 9.68946L7.0618 11.1917L6.23542 12.9193L5.70954 14.7971L5.55929 15.5482V17.5762L5.78467 19.0034L6.1603 20.4305L7.0618 22.3083L7.81306 23.5101L8.71457 24.5617L9.6912 25.463L10.8181 26.2892L12.6962 27.1906L14.0485 27.6413L15.8515 28.0168L16.3774 28.0919H17.5794L19.4575 27.7164L21.4859 27.0404L23.0635 26.2141L24.3407 25.3128L25.2422 24.4865L25.9183 23.6603L26.7447 22.3834L27.496 20.8061L27.9467 19.3038L28.2472 17.3509V15.8487L28.0218 14.4215L27.5711 12.9193L27.0452 11.7175L26.3691 10.5157L25.6929 9.53924L24.7914 8.56278L23.8899 7.81166L22.763 7.06054L20.7347 6.08408L19.0819 5.5583L17.7296 5.33296H15.8515Z" fill="#FFEAC5"/>
<path id="Vector_4" d="M41.7901 36.2188H46.8183L49.52 36.3689L50.5707 36.5941L51.7715 37.0446L52.597 37.5702L53.4976 38.396L54.098 38.9967L54.6233 39.8225L54.9986 40.6484L55.3738 41.9247L55.5239 43.2761L55.3738 44.5525L54.9986 45.9039L54.3982 47.1051L54.4732 47.6307L55.2987 48.5316L56.2744 49.8831L56.9498 51.3096L57.175 52.1354L57.25 53.3367L57.0249 54.7632L56.4245 56.3398L55.674 57.466L54.9986 58.2168L54.3982 58.7423L53.3475 59.343L52.2218 59.7184L50.4957 60.0187L49.7452 60.0938H43.7413L43.6663 59.7934L44.4918 57.6912L44.792 56.9404L45.0171 56.1146H48.3193L50.4957 56.0395L51.4713 55.8143L52.1467 55.4389L52.7471 54.7632L53.1223 53.7871V52.8111L52.8222 51.9102L52.2968 51.0843L51.6214 50.6338L50.7958 50.4086L44.6419 50.3335L41.715 50.2585L41.7901 56.0395V59.9436L41.715 60.0938H38.0376L37.8125 59.7184V38.9216L37.8875 36.2938L41.7901 36.2188ZM41.7901 40.1228L41.715 40.3481V44.3272L41.7901 46.2793L44.1166 46.3544H46.5181L48.4694 46.2793L49.2198 46.1291L50.1955 45.6036L50.9459 44.9279L51.2461 44.4774L51.4713 43.6515V42.6004L51.1711 41.7746L50.7208 41.0989L50.1204 40.5733L49.3699 40.273L48.7695 40.1979L45.8427 40.1228H41.7901Z" fill="#FFEAC5"/>
<path id="Vector_5" d="M90.2432 36.2188H94.3001L94.6006 36.3688L95.2016 37.5695L96.4036 40.1208L97.0046 41.4715L98.3569 44.398L99.7092 47.4746L100.611 49.5007L101.813 52.1271L102.789 54.3782L103.766 56.5544L104.743 58.5054L105.344 59.9311L105.269 60.1562H101.137L100.686 59.4809L100.085 58.2803L99.1082 56.1041L98.0564 53.7029L97.3803 52.2021L96.4787 50.2511L95.0513 47.1745L94.0747 44.9233L93.0229 42.5971L92.6473 41.6966L92.3467 41.3214L92.1965 41.2464L92.0462 41.9968L90.9945 44.2479L90.0929 46.1239L88.8909 48.7503L88.2148 50.2511L87.6137 51.3767L87.3884 51.7519L87.4635 51.8269L88.2148 51.9019L93.7742 52.052L93.9995 52.3522L94.5254 53.853L95.2016 55.3537L95.3518 55.804L95.2767 55.879L94.0747 55.9541L85.5102 55.879L85.2848 56.7044L84.233 59.1057L83.8574 59.9311L83.7822 60.0812L83.4817 60.1562H82.3548L79.5 60.0812L79.5751 59.5559L80.4015 57.83L81.2279 56.0291L82.1295 53.928L83.4066 51.0765L84.6838 48.3001L85.5853 46.274L86.1112 45.1484L87.4635 42.2219L88.2899 40.3459L89.2665 38.0947L89.9427 36.669L90.1681 36.2938L90.2432 36.2188Z" fill="#FFEAC5"/>
<path id="Vector_6" d="M19.4813 36.2188H32.7666L35.3186 36.2938L35.3937 36.3689V40.1228L35.3186 40.1979H25.0356L23.3843 40.1228L23.4594 46.2793H32.1662L32.4664 46.5796L32.7666 47.7058L33.217 49.5077L33.3671 50.1834L33.0669 50.2585H23.3843L23.4594 54.3127V56.1146H35.1685L35.4688 56.2647V59.9436L35.0184 60.0938H19.6314L19.4813 59.8685L19.4062 59.418V36.2938L19.4813 36.2188Z" fill="#FFEAC5"/>
<path id="Vector_7" d="M59.4314 36.2188L63.111 36.2939L63.3363 36.369V50.6411L63.4865 51.843L63.937 53.1951L64.4627 54.0965L64.9883 54.6974V54.8476L65.2887 54.9979L65.8895 55.5237L66.9408 56.0495L68.0672 56.4251L68.8181 56.5753H70.0947L71.3713 56.2748L72.5728 55.6739L73.6241 54.8476L74.4501 53.796L74.9007 52.8946L75.201 51.9181L75.3512 50.8665L75.4263 42.2281L75.5014 36.2939L75.8769 36.2188H79.3312L79.4062 36.7446V42.7539L79.3312 49.6646L79.181 52.4439L78.9557 53.5707L78.5802 54.6223L78.1297 55.4486L77.604 56.2748L76.8531 57.3265L75.8769 58.303L74.9757 58.979L73.8493 59.58L71.8969 60.1809L70.6954 60.4063H67.917L66.6404 60.1809L65.2887 59.7302L64.0121 59.1293L62.9608 58.3781L62.2099 57.7021L61.3839 56.6504L60.6329 55.4486L59.9571 54.0214L59.6567 53.0448L59.4314 51.6927L59.3563 50.7913L59.2812 48.613L59.3563 36.2939L59.4314 36.2188Z" fill="#FFEAC5"/>
<path id="Vector_8" d="M7.37939 35.8438H8.35581L10.0082 35.9939L11.8109 36.3693L13.2379 36.8948L14.665 37.6456L15.4912 38.1711L15.7166 38.3963V38.8468L15.2659 39.3723L14.8152 39.7477L14.1393 40.5736L13.6135 41.0991L13.313 41.3243L12.9375 41.1742L12.1113 40.4985L11.2851 40.1231L10.1584 39.7477L9.25713 39.5976H7.5296L6.32785 39.8979L5.42653 40.3483L4.75055 41.024L4.375 41.9249L4.29989 42.5255L4.45011 43.1261L4.82566 43.8769L5.42653 44.5526L6.47807 45.2283L7.75493 45.6787L10.0082 46.2793L11.21 46.7298L12.4117 47.2553L13.6886 48.0061L14.8904 48.907L15.6414 49.5827L16.2423 50.3335L16.8432 51.3845L17.1436 52.3605L17.2188 53.0362V54.2374L16.9934 55.6639L16.5428 56.79L15.8668 57.766L15.1908 58.5168L14.1393 59.3426L13.2379 59.8681L12.1113 60.2435L10.6842 60.4688H8.2807L6.7034 60.3186L5.35143 60.0183L3.99945 59.5678L2.42215 58.8171L1.37061 58.2165L0.995066 57.9162L1.07018 57.6159L1.37061 57.1654L3.47368 55.0633L3.84923 55.1383L4.60033 55.7389L5.87719 56.3396L7.37939 56.79L8.20559 56.9402H9.70778L10.6091 56.7149L11.5104 56.3396L12.1864 55.814L12.7122 55.2134L13.0877 54.4627L13.1628 54.1623V53.6368L12.8624 52.8861L12.2615 52.1353L11.5104 51.6098L10.3838 51.0842L6.85362 49.883L5.27632 49.2824L3.84923 48.6067L2.7977 47.8559L1.89638 47.0301L1.2955 46.3544L0.619518 45.3034L0.243969 44.3274L0.09375 43.7268V41.9249L0.394189 40.5736L0.919956 39.2973L1.44572 38.5465L2.12171 37.7957L2.94792 37.1951L4.22478 36.5194L5.57675 36.069L7.37939 35.8438Z" fill="#FFEAC5"/>
<path id="Vector_9" d="M41.78 36.2188H46.8115L49.515 36.3689L50.5664 36.594L51.7679 37.0444L52.594 37.5698L53.4952 38.3955L54.0959 38.9959L54.6216 39.8216L54.9971 40.6473L55.3726 41.9233L55.5228 43.2743L55.3726 44.5503L54.9971 45.9014L54.3963 47.1024L54.4714 47.6278L55.2975 48.5285L56.2737 49.8795L56.9496 51.3057L57.1749 52.1313L57.25 53.3323L57.0247 54.7584L56.4239 56.3347L55.673 57.4605L54.9971 58.2111L54.3963 58.7365L53.345 59.337L52.2185 59.7123L51.017 59.9375H50.5664V59.7874L50.4162 59.7123L50.7166 59.4121H51.9181L52.594 59.262L52.6691 58.8867L52.8193 58.6615H52.9695V58.5114L53.7204 57.986L54.0959 57.6107L54.4714 57.3104L54.6216 56.9351L54.922 56.785L55.1473 56.1845L55.4477 55.6591L55.8232 54.9836L56.1235 54.7584L56.1986 54.233L56.0484 53.1822L55.9734 53.1071V52.7318L56.0484 52.3565L55.7481 51.6059L55.5228 51.2306L55.4477 50.8553L54.9971 49.7294L54.7718 49.5043L54.3963 48.5285V48.3784H54.2461L54.0959 48.0781L53.9457 47.3275L53.7955 46.8021L53.4952 46.5769L53.4201 46.1266L53.1948 46.0515L53.0446 45.451L52.594 45.2259L52.1434 44.8506L51.6928 44.9256L51.3924 45.2259L50.9419 45.7513L50.6415 45.9014L49.8154 45.9765L50.0407 45.6012L50.7166 45.0758L51.1672 44.4753L51.3924 43.6496V42.5988L51.0921 41.7731L50.6415 41.0976L50.1158 40.6473L49.3648 40.347L48.7641 40.272L45.8353 40.1969H41.78L41.7049 45.9765L41.4797 46.0515L41.1793 45.1508L40.7287 42.4487L40.5785 41.623L40.6536 40.5722L40.8038 40.1969L41.6298 39.5964L42.3808 39.3712L43.9578 39.2962H45.3847L47.6376 39.3712L49.8154 39.5214L50.4162 39.8216L50.7166 40.272L51.2422 40.7223L51.6928 41.3978L51.9181 41.9983L51.9932 42.5237V43.8748L52.2936 44.0249L52.5189 44.2501H52.8193L53.2699 43.9499L53.1948 43.3494L53.345 42.5988L53.2699 41.9233V40.9475L53.1948 40.347L52.9695 39.9717V39.5214L52.6691 39.2962V39.1461H52.5189V38.9959H52.3687L52.1434 38.6206L52.0683 38.3955L51.843 38.3204L51.6177 37.795L50.7166 37.3446L49.515 37.1195L47.938 36.8943L46.8115 36.8192L46.2108 36.7442H44.5586L43.0567 36.6691L42.0804 36.7442L41.9302 36.8192L40.954 36.8943L40.3532 36.9693L39.3769 37.1195L38.626 37.3446H38.4007V37.4948L38.2505 37.5698L38.1754 38.5456L38.1003 38.9209V39.6715L38.1754 40.5722L38.1003 41.2477L38.1754 42.2235L38.2505 42.3736L38.1754 43.7997L38.0252 45.451L37.875 45.376V36.2938L41.78 36.2188Z" fill="#FFEAC5"/>
<path id="Vector_10" d="M7.36955 35.8438H8.34738L10.0022 35.9938L11.8074 36.3688L13.2366 36.8938L14.6657 37.6438L15.4931 38.1688L15.7188 38.3938V38.8438L15.2674 39.3688L14.8161 39.7438L14.1392 40.5688L13.6126 41.0938L13.3118 41.3188L12.9357 41.1688L12.1083 40.4938L11.2809 40.1188L10.1526 39.7438L9.25 39.5938H7.51999L6.3165 39.8938L5.41388 40.3438L4.73692 41.0188L4.21039 42.2188L3.90952 42.0688L3.60865 41.5438L3.53343 41.1688V40.0438L3.60865 39.8938L3.8343 39.8188L4.13517 39.5188L4.51126 39.2938L4.96257 39.0688L5.18823 38.7688L5.94041 38.5438H6.76781L7.06868 37.9438V37.6438H6.91824L6.84302 37.3438L6.54215 37.2688V37.0438L5.86519 37.1938H5.03779L4.21039 37.5688L3.53343 37.4938L2.93169 37.6438L2.78125 37.2688L4.21039 36.5188L5.56432 36.0688L7.36955 35.8438Z" fill="#FFEAC5"/>
<path id="Vector_11" d="M19.4814 36.2188H32.7771L35.3311 36.2939L35.4062 36.369V40.124L35.3311 40.1991H25.0401L23.3875 40.124V45.5312H23.3124L23.2372 45.1557L23.1621 43.6537V42.0015L22.8616 41.5509L22.7114 41.4007V39.6734L23.0119 39.373L23.3875 39.2979H25.3405L29.0213 39.4481L33.1527 39.5232L34.3546 39.4481L34.58 39.2228L34.7302 38.5469L34.58 37.7959L34.2795 37.3453L33.8288 36.9698L33.0776 36.7445L32.1011 36.6694L31.425 36.5943L28.4203 36.8196L26.7678 36.7445H24.5142L22.8616 36.8947L22.0354 37.3453H21.8851V37.4955L21.4344 37.5706L20.9086 37.2702L20.8335 38.6971L20.6832 39.0726H20.533L20.4579 39.373L20.1574 39.4481V39.7485H20.0072V39.8987L19.6316 39.8236L19.4814 39.5983L19.4062 36.2939L19.4814 36.2188Z" fill="#FFEAC5"/>
<path id="Vector_12" d="M84.1555 49.6562H84.2306V50.1063L83.9302 50.5563V51.0063H83.7801L83.8552 51.2313L83.5548 51.9813L83.3295 52.5813L83.2544 53.1063L83.1043 53.4063L83.1794 54.6813L83.4797 54.9813L83.4046 55.1313L82.9541 55.2063L83.0292 55.3563L82.879 55.6562V56.0313L82.5786 56.2563L82.2032 56.4063L82.1281 56.5563L82.6537 56.6313V56.7813L82.2032 57.1563H81.9028V56.7813L81.6776 57.0063L81.8278 57.0813L81.9028 57.3063L81.5274 57.5313H81.3021L81.3772 58.0563H80.8516L80.7014 58.1313L80.7765 58.6562L81.0769 58.7313V59.0312L81.3772 59.1063L81.8278 59.1813H82.5786L82.879 59.2563V58.6562L83.1043 58.2812L82.879 58.0563L83.1794 57.9062L83.3295 57.9813L83.4797 58.3563L83.7801 58.2063L83.705 57.9062L83.7801 57.4563L83.9302 57.3813L84.1555 56.8563L84.4559 56.6313V56.1813L84.531 56.0313L85.0566 55.8063L85.3569 55.5813H85.5822L85.6573 55.2812H85.5071V55.1313L87.084 55.2063H94.0672V54.2313L94.2925 54.0063H94.5929L95.1936 55.3563L95.3438 55.8063L95.2687 55.8813L94.0672 55.9563L85.5071 55.8813L85.2818 56.7063L84.2306 59.1063L83.8552 59.9313L83.7801 60.0813L83.4797 60.1562H82.3534L79.5 60.0813L79.5751 59.5563L80.4011 57.8313L81.227 56.0313L82.1281 53.9313L83.4046 51.0813L84.0053 49.7313L84.1555 49.6562Z" fill="#FFEAC5"/>
<path id="Vector_13" d="M3.47955 55.0625L3.85524 55.1376L4.60662 55.7384L5.88396 56.3392L7.38672 56.7898L8.21324 56.94H9.71599L10.6176 56.7147L11.2188 56.6396L11.1436 56.7898L10.7679 56.94L10.5425 57.2404L9.56572 57.3155L9.3403 57.5408H8.7392L8.43865 57.691L7.91268 57.6159L6.78562 57.4657L6.10938 57.691L5.88396 57.9163L5.28286 57.691V58.0665L4.98231 58.2918H4.83203L4.68176 58.7424L4.45634 58.9677L4.98231 59.193L5.05745 59.6436L4.98231 59.7188H4.3812L2.87845 59.0428L1.15028 58.0665L1 57.9163L1.07514 57.6159L1.37569 57.1653L3.47955 55.0625Z" fill="#FFEAC5"/>
<path id="Vector_14" d="M59.4189 36.2188L63.1008 36.2939L63.3262 36.369V50.6418L63.4765 51.8438L63.9273 53.1959L64.4533 54.0974L64.9793 54.6983V54.8486L65.2798 54.9988L65.881 55.5246L66.0312 55.5998V55.75L65.4301 55.6749L65.2047 55.4495V55.2993L64.9041 55.149V54.9988L64.6036 54.8486L64.5284 54.6232H64.3782L64.2279 54.3227L63.9273 54.0222L63.6268 53.4213L63.4013 53.0457L62.9505 51.8438L62.7251 51.393L62.5748 50.4916V48.5385L62.7251 47.0361L62.8002 45.3083V44.1064L62.7251 42.9796V41.1767L62.8002 40.5006V38.5475L62.6499 37.646L61.9737 36.97L61.5228 36.7446H60.8466L60.02 37.1202H59.8697L59.7195 37.5709L59.6443 39.8245L59.5692 40.2752V40.5006L59.494 41.1016L59.6443 41.1767H59.494L59.6443 41.7025V42.3035L59.5692 42.3786L59.494 43.9561V46.2097L59.4189 47.1112H59.3438V36.2939L59.4189 36.2188Z" fill="#FFEAC5"/>
<path id="Vector_15" d="M52.0822 50.4062L52.3831 50.5564L52.5336 50.9319L53.0602 51.0821L53.2859 51.6829L53.662 52.4339L53.7373 52.9595L53.8125 53.2599L53.662 53.6354L53.5868 54.086H53.4363L53.3611 54.3864L53.1354 54.6117L53.0602 54.837H52.9097V55.2125L52.684 55.7381H52.5336L52.3831 56.0385L51.706 56.3389L50.3519 56.4891H49.4491L48.0197 56.5642L46.9664 56.9397L45.838 57.3152L45.537 57.6156L45.4618 58.4416L45.3866 58.5918H45.2361L45.1609 59.1175L46.0637 59.2677H47.4178L48.3206 59.3428L48.5463 59.4179H48.9977L49.75 59.7183V59.8685H50.2014L50.0509 60.0187L49.75 60.0938H43.7315L43.6562 59.7934L44.4838 57.6906L44.7847 56.9397L45.0104 56.1136H48.3206L50.5023 56.0385L51.4803 55.8132L52.1574 55.4377L52.7593 54.7619L53.1354 53.7856V52.8094L52.8345 51.9082L52.3079 51.0821L51.8565 50.7817V50.5564L52.0822 50.4062Z" fill="#FFEAC5"/>
<path id="Vector_16" d="M41.631 50.4688H41.7061L41.7813 56.0332V59.9434L41.7061 60.0938H38.0252L37.875 59.9434V58.2139L38.0252 58.2891L38.1755 58.665L38.6262 58.5898L38.9267 58.5146H39.6779L40.0535 58.4395L40.1286 58.0635H40.2788L40.5793 56.7852L40.7296 55.5068L40.8047 54.3789L40.8798 53.627L40.9549 50.9199L41.1803 50.6943L41.631 50.4688Z" fill="#FFEAC5"/>
<path id="Vector_17" d="M78.2011 36.2188H79.3309L79.4062 36.7445V42.7535L79.3309 49.6637L79.1803 52.4429L78.9543 53.5695L78.5777 54.6211L78.1258 55.4473L77.5986 56.2735L76.9207 57.25L76.6194 57.1749L76.4688 57.0247L76.5441 56.574L76.9207 55.9731L77.222 55.2971L78.1258 54.3206L78.5024 53.7949L78.7284 53.5695V52.8935L78.3518 52.4429L78.2764 51.842V50.7904L78.4271 48.9126V47.861L78.5777 45.4575V44.7064L78.8037 42.5281L78.879 41.9272L79.0296 39.2232L79.105 37.3454L78.8037 36.8948L78.4271 36.5943L77.8998 36.369L78.2011 36.2188Z" fill="#FFEAC5"/>
<path id="Vector_18" d="M87.6875 51.9688H91.3694L93.7739 52.0448L93.9993 52.3492L94.375 53.4905V53.7187H93.849L93.4733 53.4905L93.323 53.2622L92.4213 53.034H91.2191L90.9185 53.2622L90.6931 53.6427L90.3926 53.5666L89.4909 53.4144L89.1903 53.1861L88.5892 53.1101L87.9129 52.5774L87.6875 52.4253V51.9688Z" fill="#FFEAC5"/>
<path id="Vector_19" d="M14.7262 57.625L15.4752 57.6998V57.8495H15.625L15.5501 58.1488L14.6513 58.972L13.5278 59.7204L12.4043 60.1694L11.3557 60.3939L10.6815 60.4688H8.28472L6.71181 60.3191L6.1875 60.1694V59.9449L6.562 59.7952L7.68552 60.0197H8.58433L8.65923 59.7952H9.70784L10.2321 59.4959L10.8313 59.5707L10.9812 59.7952H11.4306L11.5804 59.8701L11.5055 59.6456L11.8051 59.2714L12.629 59.3462L13.0035 59.2714L13.2282 59.3462L13.378 58.972L13.7525 58.6727L13.9023 58.2985L14.2019 58.1488H14.5015L14.6513 57.6998L14.7262 57.625Z" fill="#FFEAC5"/>
<path id="Vector_20" d="M75.5699 36.2188L76.3989 36.2938L76.625 36.3688L76.4743 36.744L76.0974 37.2692L75.796 38.2446V39.37L75.7206 40.1954L75.796 40.2704V41.3958L75.9467 43.7968V44.8472L75.8713 45.2974L75.9467 45.4475L75.8713 46.2728V47.6233L75.796 47.9985L75.8713 48.2986L75.796 49.7242L75.7206 50.7746L75.6452 51.5249L75.3438 51.75L75.4191 42.2212L75.4945 36.2938L75.5699 36.2188Z" fill="#FFEAC5"/>
<path id="Vector_21" d="M62 57.25L62.5233 57.3994L62.8972 57.6235L63.271 57.6982L64.0934 58.221L64.7662 58.5198L64.9157 58.8933L65.14 59.1174L65.6634 59.2668H66.3362L66.7848 59.4162L67.6072 59.6402L67.8315 59.7896L67.9062 60.3125L66.9343 60.2378L65.6634 59.8643L64.3176 59.2668L63.57 58.8186L62.8972 58.2957L62.2243 57.6982L62 57.3994V57.25Z" fill="#FFEAC5"/>
<path id="Vector_22" d="M19.5556 55.2188L19.705 55.3688L19.8544 56.9438L19.9291 57.5438L20.0038 57.9938H20.1532L20.3026 58.6688H20.452L20.7508 59.2688L21.3483 59.5688L21.9459 59.7938L22.4688 59.9438V60.0188L20.6014 60.0938H19.6303L19.4809 59.8688L19.4062 59.4188V56.5688L19.4809 55.2938L19.5556 55.2188Z" fill="#FFEAC5"/>
<path id="Vector_23" d="M7.8125 45.8125L8.56456 45.8875L10.2191 46.3375L11.7232 46.9375L12.9265 47.5375L13.6786 47.9875L14.581 48.6625L14.6562 48.8125L14.205 48.7375L13.453 48.3625L11.8736 47.8375L11.4224 47.6125V47.4625L11.0464 47.3125L10.5951 47.0875L9.76786 46.7125V46.5625H8.94059L8.18853 46.2625L7.8125 45.9625V45.8125Z" fill="#FFEAC5"/>
<path id="Vector_24" d="M41.8498 29.6562H41.9249L42 31.0923V32.8307L40.7235 32.9062H36.6688L36.5938 32.8307V32.0749L36.8941 32.4528L37.4197 32.5283H38.3207L39.1467 32.6795H39.8976L41.099 32.3772L41.174 32.1504L41.4744 31.1679L41.5495 31.0923L41.6246 30.4121L41.8498 29.6562Z" fill="#FFEAC5"/>
<path id="Vector_25" d="M32.6987 48.0625H32.849L33.375 50.0357V50.1875H26.6875L26.8378 50.0357L28.9417 49.9598L29.0169 49.8839H29.3926L29.7683 49.9598H30.2942L30.7451 49.808L32.2479 49.5804L32.4733 49.2768L32.6236 48.3661L32.6987 48.0625Z" fill="#FFEAC5"/>
<path id="Vector_26" d="M5.8125 19.5312L6.03683 19.6064L6.41071 20.8088L7.23326 22.4621L7.98103 23.5893L8.80357 24.5662L9.70089 25.3929L10 25.6183V25.8437L9.70089 25.7686L9.25223 25.5432L9.0279 25.2426V25.0923L8.72879 25.0171V24.8668L8.35491 24.7165L7.90625 24.3408L7.68192 23.965L7.30804 23.5893V23.439H7.15848L6.70982 22.5372V22.2366L6.56027 22.1615L6.48549 21.8609L6.33594 21.7857L6.18638 21.1845L5.88728 20.3579L5.8125 19.5312Z" fill="#FFEAC5"/>
<path id="Vector_27" d="M23.6875 56.1875H34.1875L33.8875 56.4102L33.2875 56.4844L32.8375 56.4102H31.5625L30.1375 56.4844L29.5375 56.4102L27.6625 56.3359H26.4625L24.8875 56.7812H24.1375L23.8375 56.6328L23.6875 56.4102V56.1875Z" fill="#FFEAC5"/>
<path id="Vector_28" d="M90.2397 36.2188H94.2983L94.5989 36.3679L95.125 37.4123V37.5615L94.6741 37.4123L94.2983 37.0393L93.3212 36.6663L93.246 36.5917L92.1187 36.5171L91.4422 36.4425H90.6907L90.39 36.5917L90.3149 36.8901L90.0894 37.2631L89.9391 37.3377L89.7136 37.9345L89.413 38.3821L89.1875 38.5312L89.2627 38.0837L89.9391 36.6663L90.1646 36.2933L90.2397 36.2188Z" fill="#FFEAC5"/>
<path id="Vector_29" d="M78.7246 53.625H78.875L78.7998 54.0781L78.1982 55.2865L77.5967 56.2682L76.9199 57.25L76.6191 57.1745L76.4688 57.0234L76.5439 56.5703L76.9199 55.9661L77.2207 55.2865L78.123 54.3047L78.499 53.776L78.7246 53.625Z" fill="#FFEAC5"/>
<path id="Vector_30" d="M13.3134 53.7812H13.465L13.6165 54.4563L13.8438 54.9062L13.6922 55.2812L13.3134 55.9563L12.5559 56.3313L12.2528 56.7063L11.6468 56.7812L11.3438 56.6313V56.4062L12.1013 55.8813L12.7074 55.2063L13.0862 54.4563L13.1619 54.1562H13.3134V53.7812Z" fill="#FFEAC5"/>
<path id="Vector_31" d="M68.681 31.3125H68.8312L68.9062 32.7375L68.7561 32.8125H63.5V32.0625L64.0256 32.2875L64.7014 32.4375L65.5273 32.5875H67.2543L68.0052 32.2125H68.1554L68.3056 31.8375L68.681 31.3125Z" fill="#FFEAC5"/>
<path id="Vector_32" d="M97.9688 44.0312L98.1941 44.1063L99.4709 46.9563L100.522 49.3563L101.799 52.1313L102.25 53.1813L102.175 53.4062L101.574 52.2063L101.048 51.0813L100.222 49.2812L99.9216 48.7563L99.7714 48.6063L99.8465 48.4563H99.6963L99.2456 47.4813L99.1705 47.1063L99.0954 46.8063L98.4945 45.5312L97.9688 44.0312Z" fill="#FFEAC5"/>
<path id="Vector_33" d="M52.0709 50.4062L52.3738 50.5569L52.5252 50.9334L53.0553 51.084L53.2825 51.6865L53.6611 52.4395L53.7368 52.9667L53.8125 53.2679L53.6611 53.6445L53.5853 54.0963H53.4339L53.3582 54.3975L53.131 54.6235L53.0553 54.8494L52.6767 55L52.8281 54.6235L53.131 53.7951V52.8161L52.8281 51.9124L52.2981 51.084L51.8438 50.7828V50.5569L52.0709 50.4062Z" fill="#FFEAC5"/>
<path id="Vector_34" d="M93.1508 0.6875L93.8294 0.8375L95.7143 1.5875L97.373 2.4875L97.75 2.7125V2.8625L97.2976 2.9375L97.1468 2.8625V2.7125L96.8452 2.6375L96.2421 2.3375L95.4881 2.1125L95.0357 1.8875V1.7375H94.5079L94.0556 1.5125L93.9802 1.3625L93.754 1.4375L93.377 1.2875V1.1375L93.0754 1.0625L93 0.8375H93.1508V0.6875Z" fill="#FFEAC5"/>
<path id="Vector_35" d="M2.35547 37.625H2.65625V37.7759L2.20508 38.1533H2.05469L1.9043 38.6061L1.67871 38.9835H1.52832L1.45312 39.5118L1.22754 39.9646L1.15234 40.4929L0.701172 41.3231L0.475586 41.625L0.25 41.5495L0.325195 40.8703L0.776367 39.6627L1.15234 38.908L1.8291 38.0778L2.35547 37.625Z" fill="#FFEAC5"/>
<path id="Vector_36" d="M75.575 36.2188L76.4 36.2936L76.625 36.3685L76.475 36.7429L76.1 37.2671L75.8 38.2406V39.3638L75.65 40.1126L75.5 40.1875V36.2936L75.575 36.2188Z" fill="#FFEAC5"/>
<path id="Vector_37" d="M87.7509 0H89.322L90.3693 0.0742188L90.5938 0.296875L90.1449 0.371094L89.2472 0.296875L89.0227 0.371094H88.4991L88.3494 0.445312L86.4044 0.59375L85.8059 0.519531L85.6562 0.296875L86.2547 0.148438L87.7509 0Z" fill="#FFEAC5"/>
<path id="Vector_38" d="M35.3182 58.8125L35.4688 59.1172V59.9551L35.3935 60.0312H31.7812V59.8789L33.0606 59.7266L33.8884 59.6504L34.4904 59.4219L35.1677 58.9648L35.3182 58.8125Z" fill="#FFEAC5"/>
<path id="Vector_39" d="M37.95 47.0938H38.1L38.25 49.2715L38.175 50.8484L38.1 51.9748L38.025 52.125H37.875V47.7696L37.95 47.0938Z" fill="#FFEAC5"/>
<path id="Vector_40" d="M42.1562 46.3438H46.875L46.6503 46.4938L46.0511 46.6438H45.2272L43.9539 46.7188L42.3061 46.6438L42.1562 46.3438Z" fill="#FFEAC5"/>
<path id="Vector_41" d="M19.5312 5.5625L20.361 5.63793V5.78879L20.889 5.86422L21.7942 6.31681L22.4731 6.61853L23.0011 6.84483V6.99569L23.3782 7.14655L23.8308 7.52371L23.9062 7.75L23.6045 7.67457L22.4731 6.99569L20.7381 6.16595L19.6067 5.78879L19.5312 5.5625Z" fill="#FFEAC5"/>
<path id="Vector_42" d="M59.5 51.5312L59.8047 51.8318V52.6582H59.957L60.1094 53.3344L60.5664 54.236L60.7188 54.9122L60.6426 55.0625L60.4141 54.9874L59.957 54.0106L59.6523 53.0339L59.5 52.2826V51.5312Z" fill="#FFEAC5"/>
<path id="Vector_43" d="M15.7031 0H16.9807L17.2812 0.151786L16.7552 0.379464L14.5759 0.53125L14.125 0.379464L14.3504 0.151786L15.7031 0Z" fill="#FFEAC5"/>
<path id="Vector_44" d="M90.2326 36.2188H91.3524L91.875 36.2933L91.8003 36.4425H90.6806L90.3819 36.5917L90.3073 36.8901L90.0833 37.2631L89.934 37.3377L89.7101 37.9345L89.4115 38.3821L89.1875 38.5312L89.2622 38.0837L89.934 36.6663L90.158 36.2933L90.2326 36.2188Z" fill="#FFEAC5"/>
<path id="Vector_45" d="M72.1172 13.9062H72.1875V17.8173L72.0469 18.3438L71.9062 18.0429V14.9592L72.0469 14.1319L72.1172 13.9062Z" fill="#FFEAC5"/>
<path id="Vector_46" d="M36.5938 32.0625L36.8932 32.446L37.4172 32.5227H38.3154L39.8125 32.7528V32.8295L38.6897 32.9062H36.6686L36.5938 32.8295V32.0625Z" fill="#FFEAC5"/>
<path id="Vector_47" d="M15.6375 33.0625H17.6625L18.1875 33.2083L17.9625 33.4271L16.6125 33.5L15.6375 33.4271L15.1875 33.2812L15.2625 33.1354L15.6375 33.0625Z" fill="#FFEAC5"/>
<path id="Vector_48" d="M69.5 59.875L69.8768 60.0268L70.329 60.1786L70.7059 60.1027L70.7812 60.3304L70.7059 60.4062H68.4449L68.2188 60.3304L68.2941 60.0268H68.9724L69.5 59.875Z" fill="#FFEAC5"/>
<path id="Vector_49" d="M14.6673 5.03125H15.7258L16.4062 5.17969V5.25391L15.3478 5.47656L14.6673 5.625H14.2137L14.0625 5.55078L14.1381 5.17969L14.6673 5.03125Z" fill="#FFEAC5"/>
<path id="Vector_50" d="M90.5382 44.6875H90.6875L90.6128 45.0663L89.6424 47.1117L89.4184 47.1875L89.3438 46.9602L89.5677 46.5814L89.6424 46.2027L89.8663 45.6723L90.0156 45.2178L90.1649 44.9905H90.3142V44.839L90.5382 44.6875Z" fill="#FFEAC5"/>
<path id="Vector_51" d="M3.78125 48.375H4.37847L4.90104 48.6719L5.27431 48.9688L5.94618 49.1172L6.46875 49.4141L6.3941 49.5625L5.79688 49.4883L4.30382 48.8203L3.78125 48.5234V48.375Z" fill="#FFEAC5"/>
<path id="Vector_52" d="M52.8984 25.25L53.3438 25.3242L53.2695 25.6953L52.8242 26.4375L52.5273 26.0664L52.1562 25.5469V25.3984L52.8984 25.25Z" fill="#FFEAC5"/>
<path id="Vector_53" d="M59.4219 41.4688L59.6562 41.6938V42.2938L59.5781 42.3688L59.5 43.9438V46.1938L59.4219 47.0938H59.3438V41.5438L59.4219 41.4688Z" fill="#FFEAC5"/>
<path id="Vector_54" d="M98.1861 29.9062L98.5625 29.9799L98.4119 30.2746L97.358 30.9375H96.9062L97.0568 30.5692H97.2074V30.4219L97.7344 30.3482V30.2009L97.9602 29.9799L98.1861 29.9062Z" fill="#FFEAC5"/>
<path id="Vector_55" d="M46.0625 6.15625L46.2875 6.23125L46.8875 7.20625L47.5625 8.25625V8.40625L47.1125 8.18125V8.03125L46.8875 7.95625L46.3625 6.98125L46.1375 6.45625L46.0625 6.15625Z" fill="#FFEAC5"/>
<path id="Vector_56" d="M16.9938 52.2812L17.1438 52.3564L17.2188 53.0329V54.2356L17.1438 54.9122L16.9938 55.0625L16.8438 54.386L16.9188 53.5591V52.4316L16.9938 52.2812Z" fill="#FFEAC5"/>
<path id="Vector_57" d="M74.3813 53.8438H74.5312L74.4563 54.224L74.1563 54.376L74.0063 54.6802L73.7812 55.0604L73.4062 55.4406L73.3313 55.5927L72.5813 55.9729H72.4313V56.125H72.2812L72.4313 55.7448L73.2563 55.1365L73.7063 54.7563L74.3813 53.8438Z" fill="#FFEAC5"/>
<path id="Vector_58" d="M88.7375 33.0625H89.1875L89.5625 33.2125V33.3625L89.2625 33.4375H87.4625L87.3125 33.2875L88.0625 33.1375L88.7375 33.0625Z" fill="#FFEAC5"/>
<path id="Vector_59" d="M93.25 42.6562L93.7 42.9574L94 43.4844V44.3125L93.775 44.2372L93.25 43.108V42.6562Z" fill="#FFEAC5"/>
<path id="Vector_60" d="M17.2812 5.1875H18.2563L19.0063 5.26339L19.4563 5.49107L19.5312 5.71875L18.7063 5.56696L17.7313 5.41518L17.2812 5.26339V5.1875Z" fill="#FFEAC5"/>
<path id="Vector_61" d="M48.8438 10.4375L49.0664 10.5125L49.8828 11.8625L50.0312 12.0875V12.3125H49.8828L49.5859 11.8625L49.4375 11.7125L49.2891 11.4125L49.0664 11.1875L48.8438 10.6625V10.4375Z" fill="#FFEAC5"/>
<path id="Vector_62" d="M45.6822 50.0312L46.2832 50.1042H47.7108L48.5372 50.0312L48.6875 50.25H45.1562L45.3065 50.1042L45.6822 50.0312Z" fill="#FFEAC5"/>
<path id="Vector_63" d="M101.062 50.9375L101.285 51.0123L102.25 53.1818L102.176 53.4062L101.582 52.2093L101.062 51.0871V50.9375Z" fill="#FFEAC5"/>
<path id="Vector_64" d="M7.4375 49.875L8.50272 50.0278L9.11141 50.3333L9.1875 50.5625L8.65489 50.4861L7.51359 50.1042L7.4375 49.875Z" fill="#FFEAC5"/>
<path id="Vector_65" d="M88.4304 4.96875L90.2954 5.25446L90.5938 5.46875L89.4748 5.39732L89.251 5.32589L88.2812 5.25446V5.04018L88.4304 4.96875Z" fill="#FFEAC5"/>
<path id="Vector_66" d="M11.125 26.5312L11.575 26.6051L12.55 27.0483L12.625 27.2699L12.175 27.3437L11.875 27.1222L11.35 26.8267L11.125 26.679V26.5312Z" fill="#FFEAC5"/>
<path id="Vector_67" d="M54.6295 13.4375H54.7812L54.7054 13.8125L54.4018 14.4125L54.25 14.6375H54.0982V14.7875H53.9464V14.9375H53.7188L53.8705 14.6375L54.3259 13.8875L54.6295 13.4375Z" fill="#FFEAC5"/>
<path id="Vector_68" d="M88.8077 39.125H88.9567L89.0312 39.3522L88.5841 40.1851L88.137 41.0938L88.0625 40.8666L88.8077 39.125Z" fill="#FFEAC5"/>
<path id="Vector_69" d="M9.41815 31.4062L10.683 31.8563L10.9062 32.0813V32.1562L10.3854 32.0813L9.34375 31.6313L9.41815 31.4062Z" fill="#FFEAC5"/>
<path id="Vector_70" d="M13 27.3438L13.5326 27.418L14.6739 27.7148L14.75 27.8633L14.4457 27.9375L13.2283 27.6406L13 27.4922V27.3438Z" fill="#FFEAC5"/>
<path id="Vector_71" d="M96.375 40.5H96.5284L97.2188 41.9198L97.142 42.2187L96.7585 41.6957L96.375 40.7242V40.5Z" fill="#FFEAC5"/>
<path id="Vector_72" d="M43.1346 50.0312H44.2524L44.625 50.1042L44.5505 50.25H43.1346L42.6875 50.1771V50.1042L43.1346 50.0312Z" fill="#FFEAC5"/>
<path id="Vector_73" d="M100.219 49.125L100.442 49.1997L101.188 50.8437H100.964L100.219 49.2745V49.125Z" fill="#FFEAC5"/>
<path id="Vector_74" d="M22.2625 26.5938L22.5625 26.6688L22.1875 26.9688L21.4375 27.2688L21.0625 27.3438L21.1375 27.1188L22.2625 26.5938Z" fill="#FFEAC5"/>
<path id="Vector_75" d="M15.6484 56.9375L16.0195 57.0125L16.0938 57.3125L16.0195 57.5375L15.7969 57.6875L15.5 57.6125L15.6484 56.9375Z" fill="#FFEAC5"/>
<path id="Vector_76" d="M89.7708 37.3438L89.8438 37.5664L89.6979 37.9375L89.4062 38.3828L89.1875 38.5312L89.2604 38.0859L89.5521 37.4922L89.7708 37.3438Z" fill="#FFEAC5"/>
<path id="Vector_77" d="M26.692 22.4688L26.8438 22.5438L26.6161 23.0688L26.2366 23.4438L26.0848 23.7438H25.933L25.8571 23.9688L25.7812 23.7438L26.3125 22.9938L26.692 22.4688Z" fill="#FFEAC5"/>
<path id="Vector_78" d="M59.3438 47.5625H59.4271L59.5938 48.3773V49.1181L59.4271 49.5625H59.3438V47.5625Z" fill="#FFEAC5"/>
<path id="Vector_79" d="M0.24375 42.5312H0.39375L0.46875 42.9784L0.39375 43.5H0.16875L0.09375 43.2764V42.6803L0.24375 42.5312Z" fill="#FFEAC5"/>
<path id="Vector_80" d="M81.8125 31.7812L82.1858 31.8542L83.1562 32.3646L82.8576 32.4375L81.8125 32V31.7812Z" fill="#FFEAC5"/>
<path id="Vector_81" d="M4.90625 44.0938L5.4349 44.5469L5.8125 44.849V45L5.35938 44.9245L5.05729 44.5469L4.90625 44.0938Z" fill="#FFEAC5"/>
<path id="Vector_82" d="M37.875 53.7188H38.1094L38.1875 54.529H38.0312L37.9531 54.75H37.875V53.7188Z" fill="#FFEAC5"/>
<path id="Vector_83" d="M50.1895 50.0312L50.7988 50.1016L50.875 50.3125H50.1895L49.6562 50.2422V50.1719L50.1895 50.0312Z" fill="#FFEAC5"/>
<path id="Vector_84" d="M60.875 3.96875V4.19643L60.4931 4.87946L60.1875 5.03125L60.2639 4.72768L60.6458 4.12054L60.875 3.96875Z" fill="#FFEAC5"/>
<path id="Vector_85" d="M9.46875 50.5625L10.3688 50.7902L10.5938 50.942V51.0938L10.1438 51.0179L9.46875 50.7143V50.5625Z" fill="#FFEAC5"/>
<path id="Vector_86" d="M84.1429 49.6562H84.2188V50.1094L83.9911 50.487L83.6875 50.5625L83.8393 50.1094L83.9911 49.7318L84.1429 49.6562Z" fill="#FFEAC5"/>
<path id="Vector_87" d="M29.8438 6.3125H30.0688L30.5938 7.06771L30.5188 7.21875L29.9938 6.76562L29.8438 6.3125Z" fill="#FFEAC5"/>
<path id="Vector_88" d="M17.2812 5.1875H18.2743L18.6562 5.33333V5.40625H17.7396L17.2812 5.26042V5.1875Z" fill="#FFEAC5"/>
<path id="Vector_89" d="M25.3197 24.3438H25.4688L25.3942 24.6418L24.7981 25.1635L24.5 25.3125L24.7981 24.8654L25.3197 24.3438Z" fill="#FFEAC5"/>
<path id="Vector_90" d="M101.73 52.125L101.879 52.3511L102.25 53.1801L102.176 53.4062L101.656 52.4265L101.73 52.125Z" fill="#FFEAC5"/>
<path id="Vector_91" d="M66.0563 59.7188L66.5813 59.7938L66.6562 60.0188L66.3563 60.0938L65.9062 59.9438L66.0563 59.7188Z" fill="#FFEAC5"/>
<path id="Vector_92" d="M74.3785 53.8438H74.5312L74.4549 54.2273L74.1493 54.3807L73.9965 54.6875H73.8438L73.9965 54.3807L74.3785 53.8438Z" fill="#FFEAC5"/>
<path id="Vector_93" d="M19.9904 27.5H20.4375L20.2139 27.7109L19.9904 27.7812H19.4688V27.6406L19.9904 27.5Z" fill="#FFEAC5"/>
<path id="Vector_94" d="M100.656 50.0938L100.884 50.1705L101.188 50.9375L100.96 50.8608L100.656 50.2472V50.0938Z" fill="#FFEAC5"/>
</g>
</svg>
