<svg width="17" height="10" viewBox="0 0 17 10" fill="none" xmlns="http://www.w3.org/2000/svg">
<path id="Vector" d="M7.71969 9.28055L0.219689 1.78055C0.150007 1.71087 0.0947321 1.62815 0.0570201 1.5371C0.0193082 1.44606 -0.000103034 1.34847 -0.00010303 1.24993C-0.000103025 1.15138 0.0193082 1.0538 0.0570202 0.962756C0.0947322 0.871711 0.150007 0.788985 0.219689 0.719303C0.289372 0.64962 0.372098 0.594345 0.463142 0.556633C0.554187 0.518921 0.651769 0.499511 0.750315 0.499511C0.848861 0.499511 0.946442 0.518921 1.03749 0.556633C1.12853 0.594345 1.21126 0.64962 1.28094 0.719303L8.25032 7.68962L15.2197 0.719303C15.3604 0.578573 15.5513 0.499512 15.7503 0.499512C15.9493 0.499512 16.1402 0.578573 16.2809 0.719303C16.4217 0.860034 16.5007 1.05091 16.5007 1.24993C16.5007 1.44895 16.4217 1.63982 16.2809 1.78055L8.78094 9.28055C8.71129 9.35029 8.62857 9.40561 8.53752 9.44335C8.44647 9.48109 8.34888 9.50052 8.25032 9.50052C8.15175 9.50052 8.05416 9.48109 7.96311 9.44335C7.87206 9.40561 7.78934 9.35029 7.71969 9.28055Z" fill="#FFEAC5"/>
</svg>
